<mxfile host="65bd71144e">
    <diagram id="I9FQbxelefLgMyFjd0UU" name="Page-1">
        <mxGraphModel dx="1980" dy="1113" grid="1" gridSize="10" guides="1" tooltips="1" connect="1" arrows="1" fold="1" page="1" pageScale="1" pageWidth="827" pageHeight="1169" math="0" shadow="0">
            <root>
                <mxCell id="0"/>
                <mxCell id="1" parent="0"/>
                <mxCell id="103" value="" style="rounded=0;whiteSpace=wrap;html=1;" parent="1" vertex="1">
                    <mxGeometry x="430" y="570" width="360" height="640" as="geometry"/>
                </mxCell>
                <mxCell id="12" value="" style="swimlane;startSize=0;" parent="1" vertex="1">
                    <mxGeometry x="40" y="40" width="360" height="970" as="geometry"/>
                </mxCell>
                <mxCell id="100" value="" style="rounded=0;whiteSpace=wrap;html=1;" parent="12" vertex="1">
                    <mxGeometry width="360" height="80" as="geometry"/>
                </mxCell>
                <mxCell id="23" value="" style="rounded=0;whiteSpace=wrap;html=1;" parent="12" vertex="1">
                    <mxGeometry width="360" height="970" as="geometry"/>
                </mxCell>
                <mxCell id="14" value="Search" style="strokeWidth=1;shadow=0;dashed=0;align=center;html=1;shape=mxgraph.mockup.forms.searchBox;strokeColor=#999999;mainText=;strokeColor2=#008cff;fontColor=#666666;fontSize=17;align=left;spacingLeft=3;" parent="12" vertex="1">
                    <mxGeometry x="83.5" y="20" width="160" height="40" as="geometry"/>
                </mxCell>
                <mxCell id="20" value="Menu" style="ellipse;whiteSpace=wrap;html=1;aspect=fixed;" parent="12" vertex="1">
                    <mxGeometry x="310" y="17.5" width="45" height="45" as="geometry"/>
                </mxCell>
                <mxCell id="21" value="Filtres" style="ellipse;whiteSpace=wrap;html=1;aspect=fixed;" parent="12" vertex="1">
                    <mxGeometry x="260" y="17.5" width="45" height="45" as="geometry"/>
                </mxCell>
                <mxCell id="22" value="Logo" style="ellipse;whiteSpace=wrap;html=1;" parent="12" vertex="1">
                    <mxGeometry x="10" y="10" width="60" height="60" as="geometry"/>
                </mxCell>
                <mxCell id="25" value="&lt;font style=&quot;font-size: 50px;&quot;&gt;Picture&lt;/font&gt;" style="whiteSpace=wrap;html=1;aspect=fixed;fontSize=20;" parent="12" vertex="1">
                    <mxGeometry x="30" y="110" width="300" height="300" as="geometry"/>
                </mxCell>
                <mxCell id="30" value="&lt;font style=&quot;font-size: 50px;&quot;&gt;Picture&lt;/font&gt;" style="whiteSpace=wrap;html=1;aspect=fixed;fontSize=20;" parent="12" vertex="1">
                    <mxGeometry x="30" y="545" width="300" height="300" as="geometry"/>
                </mxCell>
                <mxCell id="24" value="&lt;div style=&quot;text-align: justify; font-size: 16px;&quot;&gt;Villa Bella&lt;/div&gt;&lt;div style=&quot;text-align: justify; font-size: 14px;&quot;&gt;&lt;span style=&quot;background-color: initial;&quot;&gt;&lt;font style=&quot;font-size: 14px;&quot;&gt;Petite villa au coeur de Toulon ...&lt;/font&gt;&lt;/span&gt;&lt;/div&gt;&lt;div style=&quot;text-align: right;&quot;&gt;&lt;span style=&quot;font-size: 20px;&quot;&gt;80 € / pers&lt;/span&gt;&lt;/div&gt;" style="rounded=0;whiteSpace=wrap;html=1;align=left;" parent="12" vertex="1">
                    <mxGeometry x="30" y="420" width="300" height="90" as="geometry"/>
                </mxCell>
                <mxCell id="123" value="&lt;div style=&quot;text-align: justify; font-size: 16px;&quot;&gt;Villa Bella&lt;/div&gt;&lt;div style=&quot;text-align: justify; font-size: 14px;&quot;&gt;&lt;span style=&quot;background-color: initial;&quot;&gt;&lt;font style=&quot;font-size: 14px;&quot;&gt;Petite villa au coeur de Toulon ...&lt;/font&gt;&lt;/span&gt;&lt;/div&gt;&lt;div style=&quot;text-align: right;&quot;&gt;&lt;span style=&quot;font-size: 20px;&quot;&gt;80 € / pers&lt;/span&gt;&lt;/div&gt;" style="rounded=0;whiteSpace=wrap;html=1;align=left;" vertex="1" parent="12">
                    <mxGeometry x="30" y="850" width="300" height="90" as="geometry"/>
                </mxCell>
                <mxCell id="49" value="" style="rounded=0;whiteSpace=wrap;html=1;" parent="1" vertex="1">
                    <mxGeometry x="430" y="570" width="360" height="80" as="geometry"/>
                </mxCell>
                <mxCell id="50" value="Search" style="strokeWidth=1;shadow=0;dashed=0;align=center;html=1;shape=mxgraph.mockup.forms.searchBox;strokeColor=#999999;mainText=;strokeColor2=#008cff;fontColor=#666666;fontSize=17;align=left;spacingLeft=3;" parent="1" vertex="1">
                    <mxGeometry x="513.5" y="590" width="160" height="40" as="geometry"/>
                </mxCell>
                <mxCell id="51" value="Menu" style="ellipse;whiteSpace=wrap;html=1;aspect=fixed;" parent="1" vertex="1">
                    <mxGeometry x="740" y="587.5" width="45" height="45" as="geometry"/>
                </mxCell>
                <mxCell id="52" value="Filtres" style="ellipse;whiteSpace=wrap;html=1;aspect=fixed;" parent="1" vertex="1">
                    <mxGeometry x="690" y="587.5" width="45" height="45" as="geometry"/>
                </mxCell>
                <mxCell id="53" value="Logo" style="ellipse;whiteSpace=wrap;html=1;" parent="1" vertex="1">
                    <mxGeometry x="440" y="580" width="60" height="60" as="geometry"/>
                </mxCell>
                <mxCell id="54" value="" style="rounded=1;whiteSpace=wrap;html=1;fontSize=50;" parent="1" vertex="1">
                    <mxGeometry x="460" y="620" width="300" height="580" as="geometry"/>
                </mxCell>
                <mxCell id="56" value="&lt;p style=&quot;line-height: 50%;&quot;&gt;&lt;br&gt;&lt;/p&gt;" style="rounded=0;whiteSpace=wrap;html=1;fontSize=50;" parent="1" vertex="1">
                    <mxGeometry x="460" y="790" width="300" height="100" as="geometry"/>
                </mxCell>
                <mxCell id="57" value="" style="rounded=1;whiteSpace=wrap;html=1;fontSize=30;" parent="1" vertex="1">
                    <mxGeometry x="460" y="830" width="140" height="60" as="geometry"/>
                </mxCell>
                <mxCell id="58" value="&lt;font style=&quot;font-size: 20px;&quot;&gt;€ ---&lt;/font&gt;" style="rounded=0;whiteSpace=wrap;html=1;fontSize=30;align=left;" parent="1" vertex="1">
                    <mxGeometry x="470" y="860" width="120" height="30" as="geometry"/>
                </mxCell>
                <mxCell id="59" value="&lt;font style=&quot;font-size: 20px;&quot;&gt;Minimum&lt;/font&gt;" style="rounded=0;whiteSpace=wrap;html=1;fontSize=30;align=left;" parent="1" vertex="1">
                    <mxGeometry x="470" y="830" width="120" height="30" as="geometry"/>
                </mxCell>
                <mxCell id="61" value="" style="rounded=1;whiteSpace=wrap;html=1;fontSize=30;" parent="1" vertex="1">
                    <mxGeometry x="620" y="830" width="140" height="60" as="geometry"/>
                </mxCell>
                <mxCell id="62" value="&lt;font style=&quot;font-size: 20px;&quot;&gt;€ ---&lt;/font&gt;" style="rounded=0;whiteSpace=wrap;html=1;fontSize=30;align=left;" parent="1" vertex="1">
                    <mxGeometry x="630" y="860" width="120" height="30" as="geometry"/>
                </mxCell>
                <mxCell id="63" value="&lt;font style=&quot;font-size: 20px;&quot;&gt;Maximum&lt;/font&gt;" style="rounded=0;whiteSpace=wrap;html=1;fontSize=30;align=left;" parent="1" vertex="1">
                    <mxGeometry x="630" y="830" width="120" height="30" as="geometry"/>
                </mxCell>
                <mxCell id="65" value="&lt;p style=&quot;line-height: 50%;&quot;&gt;&lt;br&gt;&lt;/p&gt;" style="rounded=0;whiteSpace=wrap;html=1;fontSize=50;" parent="1" vertex="1">
                    <mxGeometry x="460" y="670" width="300" height="100" as="geometry"/>
                </mxCell>
                <mxCell id="73" value="Option 1" style="strokeWidth=1;shadow=0;dashed=0;align=center;html=1;shape=mxgraph.mockup.forms.comboBox;strokeColor=#999999;fillColor=#ddeeff;align=left;fillColor2=#aaddff;mainText=;fontColor=#666666;fontSize=17;spacingLeft=3;" parent="1" vertex="1">
                    <mxGeometry x="475" y="720" width="270" height="35" as="geometry"/>
                </mxCell>
                <mxCell id="75" value="&lt;p style=&quot;line-height: 50%;&quot;&gt;&lt;br&gt;&lt;/p&gt;" style="rounded=0;whiteSpace=wrap;html=1;fontSize=50;" parent="1" vertex="1">
                    <mxGeometry x="460" y="940" width="300" height="60" as="geometry"/>
                </mxCell>
                <mxCell id="76" value="" style="rounded=0;whiteSpace=wrap;html=1;fontSize=20;" parent="1" vertex="1">
                    <mxGeometry x="460" y="900" width="300" height="100" as="geometry"/>
                </mxCell>
                <mxCell id="77" value="1" style="strokeWidth=1;shadow=0;dashed=0;align=center;html=1;shape=mxgraph.mockup.forms.comboBox;strokeColor=#999999;fillColor=#ddeeff;align=left;fillColor2=#aaddff;mainText=;fontColor=#666666;fontSize=17;spacingLeft=3;" parent="1" vertex="1">
                    <mxGeometry x="550" y="950" width="55" height="35" as="geometry"/>
                </mxCell>
                <mxCell id="78" value="Adulte" style="rounded=0;whiteSpace=wrap;html=1;fontSize=25;" parent="1" vertex="1">
                    <mxGeometry x="470" y="950" width="75" height="35" as="geometry"/>
                </mxCell>
                <mxCell id="79" value="1" style="strokeWidth=1;shadow=0;dashed=0;align=center;html=1;shape=mxgraph.mockup.forms.comboBox;strokeColor=#999999;fillColor=#ddeeff;align=left;fillColor2=#aaddff;mainText=;fontColor=#666666;fontSize=17;spacingLeft=3;" parent="1" vertex="1">
                    <mxGeometry x="695" y="950" width="55" height="35" as="geometry"/>
                </mxCell>
                <mxCell id="80" value="Enfant" style="rounded=0;whiteSpace=wrap;html=1;fontSize=25;" parent="1" vertex="1">
                    <mxGeometry x="615" y="950" width="75" height="35" as="geometry"/>
                </mxCell>
                <mxCell id="84" value="&lt;p style=&quot;line-height: 50%;&quot;&gt;&lt;br&gt;&lt;/p&gt;" style="rounded=0;whiteSpace=wrap;html=1;fontSize=50;" parent="1" vertex="1">
                    <mxGeometry x="460" y="1020" width="300" height="100" as="geometry"/>
                </mxCell>
                <mxCell id="85" value="" style="rounded=1;whiteSpace=wrap;html=1;fontSize=30;" parent="1" vertex="1">
                    <mxGeometry x="460" y="1060" width="140" height="60" as="geometry"/>
                </mxCell>
                <mxCell id="86" value="&lt;font style=&quot;font-size: 15px;&quot;&gt;jj/mm/YYYY&lt;/font&gt;" style="rounded=0;whiteSpace=wrap;html=1;fontSize=30;align=center;" parent="1" vertex="1">
                    <mxGeometry x="470" y="1090" width="120" height="30" as="geometry"/>
                </mxCell>
                <mxCell id="87" value="&lt;font style=&quot;font-size: 20px;&quot;&gt;Du&lt;/font&gt;" style="rounded=0;whiteSpace=wrap;html=1;fontSize=30;align=left;" parent="1" vertex="1">
                    <mxGeometry x="470" y="1060" width="120" height="30" as="geometry"/>
                </mxCell>
                <mxCell id="88" value="" style="rounded=1;whiteSpace=wrap;html=1;fontSize=30;" parent="1" vertex="1">
                    <mxGeometry x="620" y="1060" width="140" height="60" as="geometry"/>
                </mxCell>
                <mxCell id="89" value="&lt;div style=&quot;text-align: center;&quot;&gt;&lt;span style=&quot;background-color: initial;&quot;&gt;&lt;font style=&quot;font-size: 15px;&quot;&gt;jj/mm/YYYY&lt;/font&gt;&lt;/span&gt;&lt;/div&gt;" style="rounded=0;whiteSpace=wrap;html=1;fontSize=30;align=left;" parent="1" vertex="1">
                    <mxGeometry x="630" y="1090" width="120" height="30" as="geometry"/>
                </mxCell>
                <mxCell id="90" value="&lt;font style=&quot;font-size: 20px;&quot;&gt;Au&lt;/font&gt;" style="rounded=0;whiteSpace=wrap;html=1;fontSize=30;align=left;" parent="1" vertex="1">
                    <mxGeometry x="630" y="1060" width="120" height="30" as="geometry"/>
                </mxCell>
                <mxCell id="93" value="Valider" style="strokeWidth=1;shadow=0;dashed=0;align=center;html=1;shape=mxgraph.mockup.buttons.button;strokeColor=#666666;fontColor=#ffffff;mainText=;buttonStyle=round;fontSize=17;fontStyle=1;fillColor=#008cff;whiteSpace=wrap;" parent="1" vertex="1">
                    <mxGeometry x="535" y="1140" width="150" height="50" as="geometry"/>
                </mxCell>
                <mxCell id="95" value="&lt;span style=&quot;color: rgb(240, 240, 240); font-family: Helvetica; font-size: 20px; font-style: normal; font-variant-ligatures: normal; font-variant-caps: normal; font-weight: 400; letter-spacing: normal; orphans: 2; text-indent: 0px; text-transform: none; widows: 2; word-spacing: 0px; -webkit-text-stroke-width: 0px; background-color: rgb(42, 37, 47); text-decoration-thickness: initial; text-decoration-style: initial; text-decoration-color: initial; float: none; display: inline !important;&quot;&gt;Fourchette de prix&lt;/span&gt;" style="text;whiteSpace=wrap;html=1;fontSize=20;align=center;" parent="1" vertex="1">
                    <mxGeometry x="515" y="790" width="190" height="30" as="geometry"/>
                </mxCell>
                <mxCell id="96" value="&lt;span style=&quot;color: rgb(240, 240, 240); font-family: Helvetica; font-size: 20px; font-style: normal; font-variant-ligatures: normal; font-variant-caps: normal; font-weight: 400; letter-spacing: normal; orphans: 2; text-indent: 0px; text-transform: none; widows: 2; word-spacing: 0px; -webkit-text-stroke-width: 0px; background-color: rgb(42, 37, 47); text-decoration-thickness: initial; text-decoration-style: initial; text-decoration-color: initial; float: none; display: inline !important;&quot;&gt;Nombre de personnes&lt;/span&gt;" style="text;whiteSpace=wrap;html=1;fontSize=15;align=center;" parent="1" vertex="1">
                    <mxGeometry x="495" y="900" width="230" height="30" as="geometry"/>
                </mxCell>
                <mxCell id="97" value="&lt;span style=&quot;color: rgb(240, 240, 240); font-family: Helvetica; font-size: 20px; font-style: normal; font-variant-ligatures: normal; font-variant-caps: normal; font-weight: 400; letter-spacing: normal; orphans: 2; text-indent: 0px; text-transform: none; widows: 2; word-spacing: 0px; -webkit-text-stroke-width: 0px; background-color: rgb(42, 37, 47); text-decoration-thickness: initial; text-decoration-style: initial; text-decoration-color: initial; float: none; display: inline !important;&quot;&gt;Date du Séjour&lt;/span&gt;" style="text;whiteSpace=wrap;html=1;fontSize=15;align=center;" parent="1" vertex="1">
                    <mxGeometry x="525" y="1020" width="170" height="30" as="geometry"/>
                </mxCell>
                <mxCell id="99" value="&lt;span style=&quot;color: rgb(240, 240, 240); font-family: Helvetica; font-size: 20px; font-style: normal; font-variant-ligatures: normal; font-variant-caps: normal; font-weight: 400; letter-spacing: normal; orphans: 2; text-indent: 0px; text-transform: none; widows: 2; word-spacing: 0px; -webkit-text-stroke-width: 0px; background-color: rgb(42, 37, 47); text-decoration-thickness: initial; text-decoration-style: initial; text-decoration-color: initial; float: none; display: inline !important;&quot;&gt;Type de Logement&lt;/span&gt;" style="text;whiteSpace=wrap;html=1;fontSize=15;align=center;" parent="1" vertex="1">
                    <mxGeometry x="505" y="670" width="200" height="30" as="geometry"/>
                </mxCell>
                <mxCell id="110" value="" style="rounded=0;whiteSpace=wrap;html=1;" vertex="1" parent="1">
                    <mxGeometry x="430" y="40" width="360" height="210" as="geometry"/>
                </mxCell>
                <mxCell id="111" value="" style="rounded=0;whiteSpace=wrap;html=1;" vertex="1" parent="1">
                    <mxGeometry x="430" y="40" width="360" height="172.5" as="geometry"/>
                </mxCell>
                <mxCell id="112" value="Search" style="strokeWidth=1;shadow=0;dashed=0;align=center;html=1;shape=mxgraph.mockup.forms.searchBox;strokeColor=#999999;mainText=;strokeColor2=#008cff;fontColor=#666666;fontSize=17;align=left;spacingLeft=3;" vertex="1" parent="1">
                    <mxGeometry x="513.5" y="60" width="160" height="40" as="geometry"/>
                </mxCell>
                <mxCell id="113" value="Menu" style="ellipse;whiteSpace=wrap;html=1;aspect=fixed;" vertex="1" parent="1">
                    <mxGeometry x="740" y="57.5" width="45" height="45" as="geometry"/>
                </mxCell>
                <mxCell id="114" value="Filtres" style="ellipse;whiteSpace=wrap;html=1;aspect=fixed;" vertex="1" parent="1">
                    <mxGeometry x="690" y="57.5" width="45" height="45" as="geometry"/>
                </mxCell>
                <mxCell id="115" value="Logo" style="ellipse;whiteSpace=wrap;html=1;" vertex="1" parent="1">
                    <mxGeometry x="440" y="50" width="60" height="60" as="geometry"/>
                </mxCell>
                <mxCell id="39" value="&lt;p style=&quot;line-height: 1%;&quot;&gt;&lt;span style=&quot;font-size: 30px; background-color: initial;&quot;&gt;Connexion&lt;/span&gt;&lt;/p&gt;&lt;p style=&quot;line-height: 1%;&quot;&gt;&lt;span style=&quot;font-size: 30px;&quot;&gt;Inscription&lt;/span&gt;&lt;/p&gt;" style="rounded=0;whiteSpace=wrap;html=1;fontSize=50;spacing=0;verticalAlign=middle;labelPosition=center;verticalLabelPosition=middle;align=left;" parent="1" vertex="1">
                    <mxGeometry x="430" y="122.5" width="360" height="90" as="geometry"/>
                </mxCell>
                <mxCell id="116" value="" style="rounded=0;whiteSpace=wrap;html=1;" vertex="1" parent="1">
                    <mxGeometry x="430" y="301" width="360" height="210" as="geometry"/>
                </mxCell>
                <mxCell id="117" value="" style="rounded=0;whiteSpace=wrap;html=1;" vertex="1" parent="1">
                    <mxGeometry x="430" y="301" width="360" height="172.5" as="geometry"/>
                </mxCell>
                <mxCell id="118" value="Search" style="strokeWidth=1;shadow=0;dashed=0;align=center;html=1;shape=mxgraph.mockup.forms.searchBox;strokeColor=#999999;mainText=;strokeColor2=#008cff;fontColor=#666666;fontSize=17;align=left;spacingLeft=3;" vertex="1" parent="1">
                    <mxGeometry x="513.5" y="321" width="160" height="40" as="geometry"/>
                </mxCell>
                <mxCell id="119" value="Menu" style="ellipse;whiteSpace=wrap;html=1;aspect=fixed;" vertex="1" parent="1">
                    <mxGeometry x="740" y="318.5" width="45" height="45" as="geometry"/>
                </mxCell>
                <mxCell id="120" value="Filtres" style="ellipse;whiteSpace=wrap;html=1;aspect=fixed;" vertex="1" parent="1">
                    <mxGeometry x="690" y="318.5" width="45" height="45" as="geometry"/>
                </mxCell>
                <mxCell id="121" value="Logo" style="ellipse;whiteSpace=wrap;html=1;" vertex="1" parent="1">
                    <mxGeometry x="440" y="311" width="60" height="60" as="geometry"/>
                </mxCell>
                <mxCell id="122" value="&lt;p style=&quot;line-height: 1%;&quot;&gt;&lt;span style=&quot;font-size: 30px; background-color: initial;&quot;&gt;Mon compte&lt;/span&gt;&lt;/p&gt;&lt;p style=&quot;line-height: 1%;&quot;&gt;&lt;span style=&quot;font-size: 30px;&quot;&gt;Déconnexion&lt;/span&gt;&lt;/p&gt;" style="rounded=0;whiteSpace=wrap;html=1;fontSize=50;spacing=0;verticalAlign=middle;labelPosition=center;verticalLabelPosition=middle;align=left;" vertex="1" parent="1">
                    <mxGeometry x="430" y="383.5" width="360" height="90" as="geometry"/>
                </mxCell>
                <mxCell id="124" value="&lt;span style=&quot;font-size: 18px;&quot;&gt;Homepage&lt;/span&gt;" style="text;html=1;align=center;verticalAlign=middle;resizable=0;points=[];autosize=1;strokeColor=none;fillColor=none;fontSize=12;" vertex="1" parent="1">
                    <mxGeometry x="40" width="110" height="40" as="geometry"/>
                </mxCell>
                <mxCell id="125" value="MENU : Utilisateur non connecté" style="text;html=1;align=center;verticalAlign=middle;resizable=0;points=[];autosize=1;strokeColor=none;fillColor=none;fontSize=18;" vertex="1" parent="1">
                    <mxGeometry x="430" width="280" height="40" as="geometry"/>
                </mxCell>
                <mxCell id="126" value="MENU :Utilisateur connecté" style="text;html=1;align=center;verticalAlign=middle;resizable=0;points=[];autosize=1;strokeColor=none;fillColor=none;fontSize=18;" vertex="1" parent="1">
                    <mxGeometry x="430" y="261" width="240" height="40" as="geometry"/>
                </mxCell>
                <mxCell id="127" value="Filtre d'options" style="text;html=1;align=center;verticalAlign=middle;resizable=0;points=[];autosize=1;strokeColor=none;fillColor=none;fontSize=18;" vertex="1" parent="1">
                    <mxGeometry x="430" y="530" width="140" height="40" as="geometry"/>
                </mxCell>
            </root>
        </mxGraphModel>
    </diagram>
</mxfile>